# xmcd
#
# Track frame offsets:
#	150
#	25025
#	49947
#	69907
#	96204
#	108932
#	127050
#	142865
#	164030
#	186125
#	201357
#	224170
#	241865
#	261580
#	274507
#	298320
#
# Disc length: 4241 seconds
#
# Revision: 2
# Processed by: cddbd v1.4PL0 Copyright (c) Steve Scherf et al.
# Submitted via: EasyCDDAExtractor 5.0.6
#
DISCID=00108f10
DTITLE=Boyz II Men - The Ballad Collection
DYEAR=2000
DGENRE=Blues
TTITLE0=On Bended Knee
TTITLE1=Doin' Just Fine
TTITLE2=Please Don't Go
TTITLE3=End Of The Road
TTITLE4=It's So Hard To Say Goodbye To Yesterday
TTITLE5=Can You Stand The Rain
TTITLE6=Girl In The Life Magazine
TTITLE7=One Sweet Day (with Mariah Carey)
TTITLE8=Four Seasons Of Loneliness
TTITLE9=Water Runs Dry
TTITLE10=A Song For Mama
TTITLE11=I'll Make Love To You
TTITLE12=I Will Get There
TTITLE13=Yesterday (Spanish Version)
TTITLE14=End Of The Road (Instrumental)
TTITLE15=So Amazing
EXTD=
EXTT0=
EXTT1=
EXTT2=
EXTT3=
EXTT4=
EXTT5=
EXTT6=
EXTT7=
EXTT8=
EXTT9=
EXTT10=
EXTT11=
EXTT12=
EXTT13=
EXTT14=
EXTT15=
PLAYORDER=
